<?xml version="1.0" encoding="utf-8"?>
<!-- Generator: Adobe Illustrator 19.1.0, SVG Export Plug-In . SVG Version: 6.00 Build 0)  -->
<!DOCTYPE svg PUBLIC "-//W3C//DTD SVG 1.1//EN" "http://www.w3.org/Graphics/SVG/1.1/DTD/svg11.dtd" [
	<!ENTITY ns_extend "http://ns.adobe.com/Extensibility/1.0/">
	<!ENTITY ns_ai "http://ns.adobe.com/AdobeIllustrator/10.0/">
	<!ENTITY ns_graphs "http://ns.adobe.com/Graphs/1.0/">
	<!ENTITY ns_vars "http://ns.adobe.com/Variables/1.0/">
	<!ENTITY ns_imrep "http://ns.adobe.com/ImageReplacement/1.0/">
	<!ENTITY ns_sfw "http://ns.adobe.com/SaveForWeb/1.0/">
	<!ENTITY ns_custom "http://ns.adobe.com/GenericCustomNamespace/1.0/">
	<!ENTITY ns_adobe_xpath "http://ns.adobe.com/XPath/1.0/">
]>
<svg version="1.1" id="Layer_1" xmlns:x="&ns_extend;" xmlns:i="&ns_ai;" xmlns:graph="&ns_graphs;"
	 xmlns="http://www.w3.org/2000/svg" xmlns:xlink="http://www.w3.org/1999/xlink" x="0px" y="0px" width="300px" height="300px"
	 viewBox="0 0 300 300" style="enable-background:new 0 0 300 300;" xml:space="preserve">
<style type="text/css">
	.st0{fill:#768083;}
	.st1{fill:#FFFFFF;}
	.st2{fill-rule:evenodd;clip-rule:evenodd;fill:#768083;}
	.st3{fill-rule:evenodd;clip-rule:evenodd;fill:#FFFFFF;}
</style>
<metadata>
	<sfw  xmlns="&ns_sfw;">
		<slices></slices>
		<sliceSourceBounds  width="2250.8" height="870" x="70" y="-611.3" bottomLeftOrigin="true"></sliceSourceBounds>
	</sfw>
</metadata>
<g>
	<path class="st1" d="M129,296.5c-4.8,0-10.1-4.5-10.9-9.2l-4-24.3l-14.1-6l-20.2,13.4c-3.8,2.6-10,2.7-13.2-0.6l-35.7-35.6
		c-3.3-3.3-3.8-8.4-1.2-12.3l13.1-19.7c0.2-0.3,0.4-0.6,0.6-0.9c-2.3-4.2-4.6-8.9-6.3-14.1c-0.1-0.3-0.2-0.5-0.3-0.8l-23.6-3.9
		c-4.2-1.2-8.9-5.4-8.9-9.8v-49.2c0-4.9,3.7-9,8.5-9.6l23-2.7c1.1-2.9,2.2-5.7,3.3-8.6c0.8-1.9,1.7-3.8,2.6-5.6L28.6,77.2
		c-2.6-3.9-2.5-9.8,0.7-13L65,28.5c3.3-3.3,8.4-3.8,12.3-1.2l20.6,15.1c4-2.2,8.3-4.3,13-5.9c0.6-0.2,1.1-0.4,1.7-0.5l3.8-22.7
		c0.8-4.7,5.1-9.7,9.9-9.7h49.3c4.9,0,9.1,3.7,9.7,8.6l1.4,12.7c0.4,3.8,0.9,7.6,1.3,11.4c4.7,1.6,9.4,3.6,14.2,6.1l19.2-14.1
		c3.9-2.8,10.4-3.2,13.8,0.2l35.7,35.7c3.4,3.4,3.8,8.8,1,12.6l-15.1,20.6c2.3,4.7,4.6,9.4,6.3,14.2l23.6,3.9
		c4.8,0.7,9.3,5.9,9.3,10.8v47.3c0,4.6-4.1,9.7-8.6,10.7l-19,3.8c-1.6,4.9-3.7,9.8-6.3,14.7l14.4,19.6c2.8,3.9,2.9,9.9-0.5,13.3
		L240,271.4c-3.3,3.3-8.4,3.8-12.3,1.2l-20.6-15.1c-4,2.3-8.6,4.5-13.6,6.1c-0.3,0.1-0.7,0.2-1,0.3l-4,23.9
		c-0.8,4.7-4.9,8.6-9.7,8.6L129,296.5L129,296.5z M99.5,236.7c1.5,0,2.9,0.2,4.1,0.8l22.2,9.5c3.1,1.3,6.2,5.2,6.7,8.5l3.6,21.7
		l34.5,0l3.6-21.5c0.6-3.8,4.5-8,8.3-9c1.8-0.4,3.5-0.8,5-1.3c5.1-1.7,10-4.4,14.1-6.9c4.1-2.6,8.9-2.3,12.9,0.6l17.6,12.9
		l23.9-23.9l-13-17.7c-2.8-3.8-3.1-8.5-0.6-12.6c3.9-6.7,6.6-13.1,8.3-19.4c0.9-3.5,5.3-7.5,8.9-8.2l16.6-3.3v-33.1l-21.8-3.6
		c-3.8-0.6-7.7-4.2-8.7-7.8c-0.3-1-0.6-2-0.9-2.9c-1.9-5.3-4.4-10.3-6.9-15.3l-1.1-2.1c-1.7-3.3-1.1-9.1,1.1-12.1L251,72L227,48.1
		l-17.8,13.1c-3.2,2.3-9.1,2.6-12.5,0.6c-6.3-3.7-12.3-6.3-18.3-8c-7.7-2.1-9.3-8.1-9.7-11.4c-0.5-5.1-1-10.2-1.6-15.3l-0.5-4.1
		h-32.4l-3.7,21.7c-0.6,3.7-4.1,7.4-7.6,8.5l-2.8,0.8c-1.1,0.3-2.2,0.6-3.3,0.9c-4.9,1.6-9.5,4.2-13.8,6.8c-3.3,2-9.4,1.7-12.6-0.6
		l-17.7-13L48.7,72.3l12,17.9c2,2.9,2.3,8.3,0.6,11.4l-0.9,1.8c-1.1,2.2-2.3,4.4-3.2,6.7c-1.1,2.6-2.1,5.3-3.1,8l-1.8,4.8
		c-1.3,3.3-5.1,6.5-8.7,6.9l-19.8,2.3v32.5l20.4,3.4c5.8,1,9.1,4.2,10.1,8.7c0.3,1.6,0.8,3.1,1.3,4.6c1.6,5.1,4.3,9.8,6.9,14.2
		c2.6,4.3,2.4,9-0.5,13c-1,1.4-2,2.9-2.9,4.3l-8.8,13.2l24.4,24.4l18.1-12.1C94.5,237.3,97.1,236.7,99.5,236.7z M149.9,209.8
		c-0.1,0-0.2,0-0.4,0c-33.8-0.2-60.3-26.9-60.2-60.8c0-34,26.7-60.7,60.7-60.7c16.6,0,31.9,6.2,43.2,17.5
		c11.3,11.3,17.5,26.7,17.5,43.3s-6.3,31.9-17.6,43.2C181.7,203.6,166.4,209.8,149.9,209.8z M150,107.8c-23.5,0-41.3,17.7-41.3,41.2
		c0,23.4,17.6,41.2,40.9,41.4c11.5-0.2,22-4.1,29.7-11.8c7.7-7.6,11.9-18.1,11.9-29.4c0-11.4-4.2-21.9-11.8-29.5
		C171.8,112,161.3,107.8,150,107.8z"/>
</g>
</svg>
