<?xml version="1.0" encoding="utf-8"?>
<!-- Generator: Adobe Illustrator 19.1.0, SVG Export Plug-In . SVG Version: 6.00 Build 0)  -->
<!DOCTYPE svg PUBLIC "-//W3C//DTD SVG 1.1//EN" "http://www.w3.org/Graphics/SVG/1.1/DTD/svg11.dtd" [
	<!ENTITY ns_extend "http://ns.adobe.com/Extensibility/1.0/">
	<!ENTITY ns_ai "http://ns.adobe.com/AdobeIllustrator/10.0/">
	<!ENTITY ns_graphs "http://ns.adobe.com/Graphs/1.0/">
	<!ENTITY ns_vars "http://ns.adobe.com/Variables/1.0/">
	<!ENTITY ns_imrep "http://ns.adobe.com/ImageReplacement/1.0/">
	<!ENTITY ns_sfw "http://ns.adobe.com/SaveForWeb/1.0/">
	<!ENTITY ns_custom "http://ns.adobe.com/GenericCustomNamespace/1.0/">
	<!ENTITY ns_adobe_xpath "http://ns.adobe.com/XPath/1.0/">
]>
<svg version="1.1" id="Layer_1" xmlns:x="&ns_extend;" xmlns:i="&ns_ai;" xmlns:graph="&ns_graphs;"
	 xmlns="http://www.w3.org/2000/svg" xmlns:xlink="http://www.w3.org/1999/xlink" x="0px" y="0px" width="321.1px" height="300px"
	 viewBox="0 0 321.1 300" style="enable-background:new 0 0 321.1 300;" xml:space="preserve">
<style type="text/css">
	.st0{fill:#768083;}
	.st1{fill:#FFFFFF;}
	.st2{fill-rule:evenodd;clip-rule:evenodd;fill:#768083;}
	.st3{fill-rule:evenodd;clip-rule:evenodd;fill:#FFFFFF;}
</style>
<metadata>
	<sfw  xmlns="&ns_sfw;">
		<slices></slices>
		<sliceSourceBounds  width="2250.8" height="870" x="70" y="-611.3" bottomLeftOrigin="true"></sliceSourceBounds>
	</sfw>
</metadata>
<g>
	<path class="st2" d="M143.9,42.8c-2-28.1,3.7-35.8,17.1-37.2c13.5-1.4,38.7,5.9,43.2,51.8c1.9,19.9-12.5,59.1-12.5,59.1
		s91.8,0.1,100.7,0.1c14.3,0,25.4,6,25.4,25.2c0,18-20.1,23.4-20.1,23.4s12.9,5,12.9,20.1c0,15.3-13.4,22.2-22.3,22.2
		c5.5,2.7,13.2,7.9,11.5,21c-1.7,13.1-11.2,17.9-20.5,20.7c6,3.7,10.4,13.9,7.1,21.7c-4.5,10.5-16.5,22.2-43.3,22.2H117.9
		c-9.5,0-16.5-4.3-18-9.5V139.1c0,0,0-4.6,0.7-5.8C134,84.7,145.9,70.9,143.9,42.8L143.9,42.8z M80.4,135.2v159.4h-48L3.3,135.2
		H80.4L80.4,135.2z M80.4,135.2"/>
</g>
</svg>
