<?xml version="1.0" encoding="utf-8"?>
<!-- Generator: Adobe Illustrator 19.1.0, SVG Export Plug-In . SVG Version: 6.00 Build 0)  -->
<!DOCTYPE svg PUBLIC "-//W3C//DTD SVG 1.1//EN" "http://www.w3.org/Graphics/SVG/1.1/DTD/svg11.dtd" [
	<!ENTITY ns_extend "http://ns.adobe.com/Extensibility/1.0/">
	<!ENTITY ns_ai "http://ns.adobe.com/AdobeIllustrator/10.0/">
	<!ENTITY ns_graphs "http://ns.adobe.com/Graphs/1.0/">
	<!ENTITY ns_vars "http://ns.adobe.com/Variables/1.0/">
	<!ENTITY ns_imrep "http://ns.adobe.com/ImageReplacement/1.0/">
	<!ENTITY ns_sfw "http://ns.adobe.com/SaveForWeb/1.0/">
	<!ENTITY ns_custom "http://ns.adobe.com/GenericCustomNamespace/1.0/">
	<!ENTITY ns_adobe_xpath "http://ns.adobe.com/XPath/1.0/">
]>
<svg version="1.1" id="Layer_1" xmlns:x="&ns_extend;" xmlns:i="&ns_ai;" xmlns:graph="&ns_graphs;"
	 xmlns="http://www.w3.org/2000/svg" xmlns:xlink="http://www.w3.org/1999/xlink" x="0px" y="0px" width="300px" height="300px"
	 viewBox="0 0 300 300" style="enable-background:new 0 0 300 300;" xml:space="preserve">
<style type="text/css">
	.st0{fill:#768083;}
	.st1{fill:#FFFFFF;}
	.st2{fill-rule:evenodd;clip-rule:evenodd;fill:#768083;}
	.st3{fill-rule:evenodd;clip-rule:evenodd;fill:#FFFFFF;}
</style>
<metadata>
	<sfw  xmlns="&ns_sfw;">
		<slices></slices>
		<sliceSourceBounds  width="2250.8" height="870" x="70" y="-611.3" bottomLeftOrigin="true"></sliceSourceBounds>
	</sfw>
</metadata>
<g>
	<path class="st1" d="M271.4,59.1h-49.6V37.8c0-17.2-14-31.2-31.2-31.2h-81.3c-17.2,0-31.2,14-31.2,31.2v21.3H28.6v27.3H41V251
		c0,23.4,19,42.4,42.4,42.4h133.2c23.4,0,42.4-19,42.4-42.4V86.4h12.4V59.1z M105.5,37.8c0-2.1,1.7-3.8,3.9-3.8h81.3
		c2.1,0,3.9,1.7,3.9,3.8v21.3h-89V37.8z M231.7,251c0,8.3-6.8,15.1-15.1,15.1H83.4c-8.3,0-15.1-6.8-15.1-15.1V86.4h163.3V251z"/>
	<rect x="98" y="107.9" class="st1" width="17.1" height="133"/>
	<rect x="141.5" y="107.9" class="st1" width="17.1" height="133"/>
	<rect x="185" y="107.9" class="st1" width="17.1" height="133"/>
</g>
</svg>
