<?xml version="1.0" encoding="utf-8"?>
<!-- Generator: Adobe Illustrator 19.1.0, SVG Export Plug-In . SVG Version: 6.00 Build 0)  -->
<!DOCTYPE svg PUBLIC "-//W3C//DTD SVG 1.1//EN" "http://www.w3.org/Graphics/SVG/1.1/DTD/svg11.dtd" [
	<!ENTITY ns_extend "http://ns.adobe.com/Extensibility/1.0/">
	<!ENTITY ns_ai "http://ns.adobe.com/AdobeIllustrator/10.0/">
	<!ENTITY ns_graphs "http://ns.adobe.com/Graphs/1.0/">
	<!ENTITY ns_vars "http://ns.adobe.com/Variables/1.0/">
	<!ENTITY ns_imrep "http://ns.adobe.com/ImageReplacement/1.0/">
	<!ENTITY ns_sfw "http://ns.adobe.com/SaveForWeb/1.0/">
	<!ENTITY ns_custom "http://ns.adobe.com/GenericCustomNamespace/1.0/">
	<!ENTITY ns_adobe_xpath "http://ns.adobe.com/XPath/1.0/">
]>
<svg version="1.1" id="Layer_1" xmlns:x="&ns_extend;" xmlns:i="&ns_ai;" xmlns:graph="&ns_graphs;"
	 xmlns="http://www.w3.org/2000/svg" xmlns:xlink="http://www.w3.org/1999/xlink" x="0px" y="0px" width="300px" height="300px"
	 viewBox="0 0 300 300" style="enable-background:new 0 0 300 300;" xml:space="preserve">
<style type="text/css">
	.st0{fill:#768083;}
	.st1{fill:#FFFFFF;}
	.st2{fill-rule:evenodd;clip-rule:evenodd;fill:#768083;}
	.st3{fill-rule:evenodd;clip-rule:evenodd;fill:#FFFFFF;}
</style>
<metadata>
	<sfw  xmlns="&ns_sfw;">
		<slices></slices>
		<sliceSourceBounds  width="2250.8" height="870" x="70" y="-611.3" bottomLeftOrigin="true"></sliceSourceBounds>
	</sfw>
</metadata>
<g>
	<path class="st1" d="M251.5,289.1H48.5c-19.4,0-35.1-15.7-35.1-35.1v-74.8c0-8.5,1.1-17,3.1-25.4L44,43.3
		c4.7-19.1,21.8-32.4,41.4-32.4h131.3c18.4,0,34.3,12.5,38.8,30.3l28,112.6c2.1,8.4,3.1,16.9,3.1,25.4V254
		C286.6,273.3,270.9,289.1,251.5,289.1z M85.4,37.9c-7.2,0-13.5,4.9-15.2,11.9L42.6,160.3c-1.5,6.2-2.3,12.6-2.3,18.9V254
		c0,4.5,3.7,8.1,8.1,8.1h203.1c4.5,0,8.1-3.7,8.1-8.1v-74.8c0-6.3-0.8-12.7-2.3-18.9l-28-112.6c-1.4-5.8-6.6-9.9-12.6-9.9H85.4z"/>
	<path class="st1" d="M252.2,289H47.8c-19,0-34.4-15.4-34.4-34.4v-66c0-19,15.4-34.4,34.4-34.4H120l6.8,28.2h46.5l6.8-28.2h72.2
		c19,0,34.4,15.4,34.4,34.4v66C286.6,273.6,271.2,289,252.2,289z M47.8,181.2c-4.1,0-7.5,3.3-7.5,7.4v66c0,4.1,3.3,7.5,7.5,7.5
		h204.4c4.1,0,7.4-3.3,7.4-7.5v-66c0-4.1-3.3-7.4-7.4-7.4h-50.9l-6.8,28.2h-89l-6.8-28.2H47.8z"/>
	<polygon class="st1" points="229.8,125.8 224.7,106.7 75.4,106.7 70.2,125.8 	"/>
	<polygon class="st1" points="223,83.5 217.9,64.4 82.2,64.4 77,83.5 	"/>
</g>
</svg>
